<svg width="40" height="40" viewBox="0 0 40 40" fill="none" xmlns="http://www.w3.org/2000/svg">
<path opacity="0.5" fill-rule="evenodd" clip-rule="evenodd" d="M23.798 3.58707C23.1808 3.33333 22.3983 3.33333 20.8333 3.33333C19.2683 3.33333 18.4858 3.33333 17.8687 3.58707C17.0457 3.92538 16.3918 4.5743 16.0509 5.39105C15.8953 5.7639 15.8344 6.1975 15.8106 6.82998C15.7756 7.75947 15.2953 8.61982 14.4836 9.08488C13.672 9.54993 12.6811 9.53257 11.8525 9.09793C11.2886 8.80217 10.8798 8.6377 10.4766 8.58503C9.59348 8.46963 8.7003 8.70715 7.9936 9.24533C7.46356 9.64897 7.07231 10.3215 6.28983 11.6666C5.50735 13.0116 5.11611 13.6841 5.02891 14.3415C4.91263 15.218 5.15196 16.1044 5.69425 16.8058C5.94176 17.126 6.28961 17.395 6.8295 17.7317C7.62318 18.2267 8.13386 19.0698 8.13381 20C8.13376 20.9302 7.6231 21.7732 6.8295 22.268C6.28953 22.6048 5.94161 22.874 5.69408 23.1942C5.1518 23.8955 4.91248 24.7818 5.02875 25.6583C5.11595 26.3157 5.5072 26.9883 6.28966 28.3333C7.07215 29.6783 7.4634 30.351 7.99343 30.7545C8.70013 31.2927 9.59331 31.5302 10.4765 31.4148C10.8796 31.3622 11.2884 31.1977 11.8522 30.902C12.6809 30.4673 13.6718 30.45 14.4835 30.915C15.2952 31.3802 15.7755 32.2405 15.8106 33.1702C15.8344 33.8025 15.8953 34.2362 16.0509 34.609C16.3918 35.4257 17.0457 36.0747 17.8687 36.413C18.4858 36.6667 19.2683 36.6667 20.8333 36.6667C22.3983 36.6667 23.1808 36.6667 23.798 36.413C24.621 36.0747 25.2748 35.4257 25.6157 34.609C25.7713 34.2362 25.8323 33.8025 25.8562 33.17C25.8912 32.2405 26.3713 31.3802 27.183 30.915C27.9947 30.4498 28.9857 30.4673 29.8143 30.902C30.3782 31.1977 30.7868 31.362 31.19 31.4147C32.0732 31.5302 32.9663 31.2927 33.673 30.7545C34.2032 30.3508 34.5943 29.6783 35.3768 28.3332C36.1593 26.9882 36.5505 26.3157 36.6378 25.6583C36.754 24.7818 36.5147 23.8953 35.9725 23.194C35.7248 22.8738 35.377 22.6047 34.837 22.268C34.0435 21.7732 33.5328 20.93 33.5328 19.9998C33.5328 19.0697 34.0435 18.2268 34.837 17.732C35.3772 17.3952 35.725 17.1262 35.9727 16.8058C36.5148 16.1046 36.7542 15.2181 36.638 14.3416C36.5507 13.6843 36.1595 13.0117 35.377 11.6667C34.5945 10.3216 34.2033 9.64908 33.6732 9.24545C32.9665 8.70727 32.0733 8.46975 31.1902 8.58515C30.787 8.63782 30.3782 8.80227 29.8145 9.098C28.9858 9.53265 27.9948 9.55003 27.1832 9.08493C26.3715 8.61985 25.8912 7.75943 25.856 6.8299C25.8322 6.19747 25.7713 5.76388 25.6157 5.39105C25.2748 4.5743 24.621 3.92538 23.798 3.58707Z" fill="#1C274C"/>
<path d="M25.8713 20C25.8713 22.7615 23.6157 25 20.8332 25C18.0507 25 15.7952 22.7615 15.7952 20C15.7952 17.2385 18.0507 15 20.8332 15C23.6157 15 25.8713 17.2385 25.8713 20Z" fill="#1C274C"/>
</svg>
